<svg xmlns="http://www.w3.org/2000/svg" viewBox="0 0 291 67.5" height="60px"><defs><style>.cls-1{fill:#fff;}</style></defs><g id="Capa_2" data-name="Capa 2"><g id="Capa_1-2" data-name="Capa 1"><path class="cls-1" d="M208.6,24.92l3.94,10.52h-2.39l-.81-2.35h-3.93l-.83,2.35h-2.32l4-10.52Zm.14,6.45-1.33-3.85h0L206,31.37Z"></path><path class="cls-1" d="M221,36a2.82,2.82,0,0,1-.54,1.1,3.27,3.27,0,0,1-1.19.84,5.12,5.12,0,0,1-2.09.37,4.66,4.66,0,0,1-1.15-.15,3.31,3.31,0,0,1-1.06-.44,2.72,2.72,0,0,1-.8-.75,2.08,2.08,0,0,1-.34-1.11h2.07a1.16,1.16,0,0,0,.57.82,2.13,2.13,0,0,0,1,.23,1.49,1.49,0,0,0,1.28-.54,2,2,0,0,0,.39-1.34V34h0a2.1,2.1,0,0,1-1,.89,3.1,3.1,0,0,1-1.31.3,3.37,3.37,0,0,1-1.48-.31,3.05,3.05,0,0,1-1-.82,3.78,3.78,0,0,1-.58-1.23,5.51,5.51,0,0,1-.19-1.48A4.84,4.84,0,0,1,213.8,30a4,4,0,0,1,.62-1.21,3.1,3.1,0,0,1,1-.83,3,3,0,0,1,1.41-.3,2.76,2.76,0,0,1,1.32.27,2.44,2.44,0,0,1,.95.94h0v-1h2V35A4.84,4.84,0,0,1,221,36Zm-2.86-2.54a1.5,1.5,0,0,0,.55-.48,2.06,2.06,0,0,0,.34-.66,3,3,0,0,0,.1-.79,3.63,3.63,0,0,0-.09-.89,1.8,1.8,0,0,0-.29-.74,1.42,1.42,0,0,0-.54-.52,1.7,1.7,0,0,0-.85-.2,1.38,1.38,0,0,0-.76.18,1.36,1.36,0,0,0-.52.49,1.59,1.59,0,0,0-.33.69,4.17,4.17,0,0,0-.09.8,3.62,3.62,0,0,0,.08.82,2.58,2.58,0,0,0,.27.74,1.55,1.55,0,0,0,.53.52,1.41,1.41,0,0,0,.82.22A1.63,1.63,0,0,0,218.16,33.47Z"></path><path class="cls-1" d="M225.66,33.61a1.85,1.85,0,0,0,1.35.46,2,2,0,0,0,1.09-.31,1.29,1.29,0,0,0,.56-.68h1.85a3.49,3.49,0,0,1-1.36,2,4,4,0,0,1-2.21.59,4.26,4.26,0,0,1-1.63-.29,3.26,3.26,0,0,1-1.22-.81,3.78,3.78,0,0,1-.78-1.27,4.67,4.67,0,0,1-.25-1.62,4.22,4.22,0,0,1,.27-1.59,3.7,3.7,0,0,1,.78-1.28,4.24,4.24,0,0,1,1.24-.84,3.89,3.89,0,0,1,1.59-.3,3.53,3.53,0,0,1,1.68.36,3.32,3.32,0,0,1,1.2,1,4,4,0,0,1,.67,1.44,5,5,0,0,1,.13,1.69h-5.48A2.07,2.07,0,0,0,225.66,33.61Zm2.37-4a1.47,1.47,0,0,0-1.15-.42,1.63,1.63,0,0,0-.84.18,1.48,1.48,0,0,0-.53.41,2.26,2.26,0,0,0-.28.53,2.2,2.2,0,0,0-.09.51h3.4A2.57,2.57,0,0,0,228,29.61Z"></path><path class="cls-1" d="M234.45,27.82v1.06h0a2.37,2.37,0,0,1,1-.95,2.84,2.84,0,0,1,1.29-.3,3.54,3.54,0,0,1,1.37.22,1.93,1.93,0,0,1,.86.64,2.22,2.22,0,0,1,.43,1,5.81,5.81,0,0,1,.13,1.29v4.69h-2.09V31.15a2.7,2.7,0,0,0-.3-1.42,1.15,1.15,0,0,0-1-.46,1.46,1.46,0,0,0-1.25.5,2.91,2.91,0,0,0-.38,1.68v4h-2.09V27.82Z"></path><path class="cls-1" d="M245.42,29.19a1.45,1.45,0,0,0-.83.24A2.1,2.1,0,0,0,244,30a2.38,2.38,0,0,0-.28.8,3.61,3.61,0,0,0-.1.86,3.5,3.5,0,0,0,.1.84,2.15,2.15,0,0,0,.28.77,1.63,1.63,0,0,0,.54.57,1.44,1.44,0,0,0,.82.22,1.56,1.56,0,0,0,1.16-.42,2,2,0,0,0,.51-1.13h2a3.39,3.39,0,0,1-1.18,2.31,3.77,3.77,0,0,1-2.48.8,3.94,3.94,0,0,1-1.56-.29,3.36,3.36,0,0,1-1.23-.8,3.67,3.67,0,0,1-.77-1.22,4,4,0,0,1-.29-1.58,4.72,4.72,0,0,1,.26-1.63,3.64,3.64,0,0,1,.75-1.32,3.5,3.5,0,0,1,1.23-.86,4.08,4.08,0,0,1,1.65-.3,5,5,0,0,1,1.3.17,3.67,3.67,0,0,1,1.13.53,3.13,3.13,0,0,1,.8.9,2.6,2.6,0,0,1,.34,1.29h-2A1.43,1.43,0,0,0,245.42,29.19Z"></path><path class="cls-1" d="M250.89,26.65V24.92H253v1.73Zm2.1,1.17v7.62h-2.1V27.82Z"></path><path class="cls-1" d="M255.14,30.16A2.34,2.34,0,0,1,255.5,29a2.72,2.72,0,0,1,.83-.79,3.48,3.48,0,0,1,1.13-.42,6.53,6.53,0,0,1,1.25-.11,9.57,9.57,0,0,1,1.18.07A3.2,3.2,0,0,1,261,28a2.13,2.13,0,0,1,.8.65,1.87,1.87,0,0,1,.31,1.11v4a6.11,6.11,0,0,0,.07,1,1.92,1.92,0,0,0,.19.71H260.2c0-.12-.07-.23-.09-.36l-.06-.37a2.77,2.77,0,0,1-1.16.72,5.15,5.15,0,0,1-1.4.2,3.37,3.37,0,0,1-1-.13,2.26,2.26,0,0,1-.82-.41,1.87,1.87,0,0,1-.56-.71,2.41,2.41,0,0,1-.2-1,2.46,2.46,0,0,1,.22-1.07,1.91,1.91,0,0,1,.6-.66,2.26,2.26,0,0,1,.83-.38,8.66,8.66,0,0,1,.94-.2l.92-.12a4.58,4.58,0,0,0,.81-.13,1.61,1.61,0,0,0,.56-.25.57.57,0,0,0,.19-.5,1.17,1.17,0,0,0-.11-.54.84.84,0,0,0-.29-.3,1,1,0,0,0-.43-.15,3,3,0,0,0-.52,0,1.64,1.64,0,0,0-1,.27,1.14,1.14,0,0,0-.39.87ZM260,31.72a1.08,1.08,0,0,1-.34.18l-.42.12a3.54,3.54,0,0,1-.48,0l-.5.09-.46.11a2.13,2.13,0,0,0-.4.2.83.83,0,0,0-.27.32,1.1,1.1,0,0,0,0,1,.67.67,0,0,0,.28.3,1,1,0,0,0,.41.15,1.94,1.94,0,0,0,.49,0,1.83,1.83,0,0,0,1-.21,1.6,1.6,0,0,0,.51-.49,1.63,1.63,0,0,0,.19-.59,3.06,3.06,0,0,0,0-.47Z"></path><path class="cls-1" d="M205.66,40.61l4.39,7h0v-7h2.16V51.14h-2.32l-4.37-7h0v7h-2.16V40.61Z"></path><path class="cls-1" d="M214.56,45.86a2.35,2.35,0,0,1,.37-1.22,2.25,2.25,0,0,1,.83-.79,3.66,3.66,0,0,1,1.12-.42,6.78,6.78,0,0,1,1.25-.12,9.48,9.48,0,0,1,1.18.08,3.77,3.77,0,0,1,1.08.32,2.48,2.48,0,0,1,.79.65,1.8,1.8,0,0,1,.31,1.11v4a7.74,7.74,0,0,0,0,1,1.71,1.71,0,0,0,.21.72h-2.11a1.4,1.4,0,0,1-.1-.36,1.07,1.07,0,0,1-.06-.38,2.66,2.66,0,0,1-1.18.71,4.36,4.36,0,0,1-1.38.21,3.07,3.07,0,0,1-1-.14,2.23,2.23,0,0,1-.82-.39,1.88,1.88,0,0,1-.56-.72,2.3,2.3,0,0,1-.19-1,2.46,2.46,0,0,1,.21-1.06,2.18,2.18,0,0,1,.59-.68A2.46,2.46,0,0,1,216,47a8.92,8.92,0,0,1,.94-.21c.31-.05.63-.07.93-.12a4.73,4.73,0,0,0,.81-.13,1.46,1.46,0,0,0,.56-.26.59.59,0,0,0,.19-.5,1.06,1.06,0,0,0-.11-.52.67.67,0,0,0-.29-.31,1.52,1.52,0,0,0-.42-.16,4.78,4.78,0,0,0-.54,0,1.55,1.55,0,0,0-1,.26,1.2,1.2,0,0,0-.41.88Zm4.83,1.54a1,1,0,0,1-.33.2l-.43.11-.47.07-.5.07a1.91,1.91,0,0,0-.47.12,1,1,0,0,0-.39.2.84.84,0,0,0-.28.31,1.1,1.1,0,0,0,0,1,.92.92,0,0,0,.28.31,1.32,1.32,0,0,0,.41.14,2.7,2.7,0,0,0,.48,0,1.8,1.8,0,0,0,1-.21,1.31,1.31,0,0,0,.5-.49,1.39,1.39,0,0,0,.2-.58c0-.19,0-.37,0-.47Z"></path><path class="cls-1" d="M227.32,44.89a1.35,1.35,0,0,0-.83.23,1.94,1.94,0,0,0-.56.58,3.26,3.26,0,0,0-.29.79,4.33,4.33,0,0,0-.08.87,4,4,0,0,0,.08.84,2.16,2.16,0,0,0,.29.78,1.5,1.5,0,0,0,.54.55,1.37,1.37,0,0,0,.82.23,1.57,1.57,0,0,0,1.15-.41,2.08,2.08,0,0,0,.52-1.13h2a3.38,3.38,0,0,1-1.17,2.31,3.79,3.79,0,0,1-2.49.79,4,4,0,0,1-1.57-.29,3.55,3.55,0,0,1-1.22-.8,3.8,3.8,0,0,1-.78-1.23,4.4,4.4,0,0,1-.27-1.58,4.89,4.89,0,0,1,.26-1.63,3.77,3.77,0,0,1,.75-1.31,3.68,3.68,0,0,1,1.22-.87,4.31,4.31,0,0,1,1.66-.3,4.46,4.46,0,0,1,1.31.18,3.39,3.39,0,0,1,1.11.55,2.7,2.7,0,0,1,.8.88,2.65,2.65,0,0,1,.35,1.28h-2A1.41,1.41,0,0,0,227.32,44.89Z"></path><path class="cls-1" d="M232.8,42.34V40.61h2.09v1.73Zm2.09,1.17v7.63H232.8V43.51Z"></path><path class="cls-1" d="M237.17,45.68A3.69,3.69,0,0,1,238,44.4a4,4,0,0,1,1.25-.81,4.58,4.58,0,0,1,1.62-.28,4.68,4.68,0,0,1,1.63.28,3.81,3.81,0,0,1,1.24.81,3.55,3.55,0,0,1,.79,1.28,4.37,4.37,0,0,1,.29,1.65,4.3,4.3,0,0,1-.29,1.65,3.68,3.68,0,0,1-.79,1.27,3.47,3.47,0,0,1-1.24.79,4.46,4.46,0,0,1-1.63.28,4.37,4.37,0,0,1-1.62-.28,3.6,3.6,0,0,1-1.25-.79,3.84,3.84,0,0,1-.79-1.27,4.72,4.72,0,0,1-.27-1.65A4.8,4.8,0,0,1,237.17,45.68Zm1.92,2.54a2.07,2.07,0,0,0,.29.78,1.53,1.53,0,0,0,1.45.76,1.81,1.81,0,0,0,.9-.2,1.7,1.7,0,0,0,.57-.56,2.26,2.26,0,0,0,.29-.78,3.74,3.74,0,0,0,.1-.89,3.88,3.88,0,0,0-.1-.9,2.13,2.13,0,0,0-.29-.77,1.7,1.7,0,0,0-.57-.56,1.71,1.71,0,0,0-.9-.21,1.65,1.65,0,0,0-.89.21,1.76,1.76,0,0,0-.56.56,2,2,0,0,0-.29.77,3.41,3.41,0,0,0-.1.9A3.29,3.29,0,0,0,239.09,48.22Z"></path><path class="cls-1" d="M248.72,43.51v1.06h0a2.43,2.43,0,0,1,1-1,3,3,0,0,1,1.3-.3,3.67,3.67,0,0,1,1.39.23,2,2,0,0,1,.85.64,2.61,2.61,0,0,1,.43,1,6.53,6.53,0,0,1,.12,1.3v4.69h-2.08V46.83a2.74,2.74,0,0,0-.3-1.41,1.19,1.19,0,0,0-1.05-.47,1.44,1.44,0,0,0-1.23.51,2.8,2.8,0,0,0-.4,1.68v4h-2.09V43.51Z"></path><path class="cls-1" d="M256,45.86a2.44,2.44,0,0,1,.37-1.22,2.48,2.48,0,0,1,.82-.79,3.72,3.72,0,0,1,1.13-.42,6.91,6.91,0,0,1,1.27-.12,9.3,9.3,0,0,1,1.16.08,3.61,3.61,0,0,1,1.07.32,2.23,2.23,0,0,1,.8.65,1.94,1.94,0,0,1,.31,1.11v4a7.74,7.74,0,0,0,.05,1,1.86,1.86,0,0,0,.22.72H261c0-.13-.06-.25-.1-.36a2.73,2.73,0,0,1,0-.38,2.69,2.69,0,0,1-1.19.71,4.32,4.32,0,0,1-1.38.21,3,3,0,0,1-1-.14,2.27,2.27,0,0,1-.83-.39,2.09,2.09,0,0,1-.56-.72,2.44,2.44,0,0,1-.2-1A2.19,2.19,0,0,1,256,48a2.09,2.09,0,0,1,.6-.68,2.25,2.25,0,0,1,.82-.36,7.51,7.51,0,0,1,.94-.21l.92-.12a4.43,4.43,0,0,0,.81-.13,1.39,1.39,0,0,0,.56-.26.6.6,0,0,0,.21-.5,1,1,0,0,0-.13-.52.63.63,0,0,0-.29-.31,1.47,1.47,0,0,0-.43-.16,4.26,4.26,0,0,0-.51,0,1.5,1.5,0,0,0-1,.26,1.18,1.18,0,0,0-.42.88Zm4.85,1.54a1.9,1.9,0,0,1-.34.2c-.15,0-.28.06-.43.11l-.47.07-.51.07a1.64,1.64,0,0,0-.46.12,1,1,0,0,0-.4.2.76.76,0,0,0-.28.31,1.2,1.2,0,0,0,0,1,.83.83,0,0,0,.28.31,1.3,1.3,0,0,0,.42.14,2.5,2.5,0,0,0,.47,0,1.78,1.78,0,0,0,1-.21,1.42,1.42,0,0,0,.51-.49,1.74,1.74,0,0,0,.2-.58c0-.19.05-.37.05-.47Z"></path><path class="cls-1" d="M267.24,40.61V51.14h-2.07V40.61Z"></path><path class="cls-1" d="M279.58,50.17a2.27,2.27,0,0,1-1,.89,3.39,3.39,0,0,1-1.35.26,3.46,3.46,0,0,1-1.51-.32,3.12,3.12,0,0,1-1.07-.9,4.42,4.42,0,0,1-.63-1.31,5.65,5.65,0,0,1-.21-1.53,5.24,5.24,0,0,1,.21-1.48,4.08,4.08,0,0,1,.63-1.27,3.6,3.6,0,0,1,1.05-.88,3.37,3.37,0,0,1,2.78,0,2.46,2.46,0,0,1,1,.85h0V40.61h2.09V51.14h-2v-1Zm-.08-3.78a2.64,2.64,0,0,0-.31-.77,1.89,1.89,0,0,0-.56-.53,1.55,1.55,0,0,0-.85-.2,1.76,1.76,0,0,0-.88.2,1.73,1.73,0,0,0-.56.55,2.53,2.53,0,0,0-.3.77,3.76,3.76,0,0,0-.1.9,3.34,3.34,0,0,0,.11.89,2.3,2.3,0,0,0,.33.78,1.61,1.61,0,0,0,.57.56,1.47,1.47,0,0,0,.83.22,1.61,1.61,0,0,0,.86-.2,1.58,1.58,0,0,0,.56-.56,2.76,2.76,0,0,0,.3-.78,5.62,5.62,0,0,0,.08-.92A5.4,5.4,0,0,0,279.5,46.39Z"></path><path class="cls-1" d="M286,49.31a1.91,1.91,0,0,0,1.36.45,1.8,1.8,0,0,0,1.09-.32,1.36,1.36,0,0,0,.56-.65h1.84a3.51,3.51,0,0,1-1.35,2,4.57,4.57,0,0,1-3.83.29,3.38,3.38,0,0,1-1.23-.81,3.86,3.86,0,0,1-.77-1.27,4.77,4.77,0,0,1,0-3.22,4,4,0,0,1,.8-1.27,3.75,3.75,0,0,1,2.81-1.15,3.61,3.61,0,0,1,1.7.37,3.46,3.46,0,0,1,1.19,1,4.18,4.18,0,0,1,.67,1.43,5.34,5.34,0,0,1,.15,1.7h-5.5A2.21,2.21,0,0,0,286,49.31Zm2.37-4a1.5,1.5,0,0,0-1.13-.41,2,2,0,0,0-.85.17,1.6,1.6,0,0,0-.53.41,1.48,1.48,0,0,0-.27.53,2.25,2.25,0,0,0-.1.52h3.41A2.43,2.43,0,0,0,288.37,45.3Z"></path><path class="cls-1" d="M207.91,56.3a5.41,5.41,0,0,1,1.89.33,4.55,4.55,0,0,1,1.51,1,4.7,4.7,0,0,1,1,1.62,6.81,6.81,0,0,1,.37,2.28,7.21,7.21,0,0,1-.31,2.13,4.57,4.57,0,0,1-.89,1.66,3.92,3.92,0,0,1-1.5,1.12,4.66,4.66,0,0,1-2.08.41h-4.55V56.3Zm-.17,8.57a3.17,3.17,0,0,0,1-.15,2.08,2.08,0,0,0,.84-.55,2.63,2.63,0,0,0,.6-1,4.61,4.61,0,0,0,.2-1.48,6.46,6.46,0,0,0-.14-1.44,3.13,3.13,0,0,0-.51-1.09,2.49,2.49,0,0,0-.93-.7,3.88,3.88,0,0,0-1.44-.24h-1.65v6.62Z"></path><path class="cls-1" d="M216.9,65a1.84,1.84,0,0,0,1.34.46,1.82,1.82,0,0,0,1.09-.32,1.4,1.4,0,0,0,.57-.65h1.83a3.55,3.55,0,0,1-1.34,2,4,4,0,0,1-2.22.58,4.33,4.33,0,0,1-1.62-.28,3.25,3.25,0,0,1-1.22-.82,3.74,3.74,0,0,1-.79-1.26,5,5,0,0,1-.26-1.63,4.3,4.3,0,0,1,.28-1.58,3.62,3.62,0,0,1,.8-1.28,3.44,3.44,0,0,1,1.23-.85,3.84,3.84,0,0,1,1.58-.31,3.46,3.46,0,0,1,1.69.39,3.18,3.18,0,0,1,1.18,1,3.81,3.81,0,0,1,.67,1.44,5,5,0,0,1,.16,1.69h-5.5A2,2,0,0,0,216.9,65Zm2.35-4a1.48,1.48,0,0,0-1.14-.41,1.83,1.83,0,0,0-.83.17,1.61,1.61,0,0,0-.54.41,1.9,1.9,0,0,0-.27.53,2.08,2.08,0,0,0-.1.51h3.41A2.48,2.48,0,0,0,219.25,61Z"></path><path class="cls-1" d="M225.46,64.94a1.34,1.34,0,0,0,.36.39,1.43,1.43,0,0,0,.5.22,2.35,2.35,0,0,0,.6.08,2,2,0,0,0,.47-.06,1.27,1.27,0,0,0,.44-.15,1.58,1.58,0,0,0,.34-.29.89.89,0,0,0,.12-.47c0-.31-.21-.55-.62-.7a10.7,10.7,0,0,0-1.75-.48c-.31-.07-.59-.16-.89-.25a3.5,3.5,0,0,1-.78-.36,1.63,1.63,0,0,1-.53-.58,1.49,1.49,0,0,1-.22-.85,2.27,2.27,0,0,1,.29-1.2,2.07,2.07,0,0,1,.76-.74,3.4,3.4,0,0,1,1-.39,6.26,6.26,0,0,1,1.21-.11,6.08,6.08,0,0,1,1.22.12,3.11,3.11,0,0,1,1,.39,2.34,2.34,0,0,1,.75.75,2.42,2.42,0,0,1,.35,1.18h-2a.9.9,0,0,0-.44-.83,2.23,2.23,0,0,0-1-.2h-.4a1.52,1.52,0,0,0-.36.12.63.63,0,0,0-.28.19.6.6,0,0,0-.13.38.57.57,0,0,0,.22.46,1.12,1.12,0,0,0,.53.28,3.58,3.58,0,0,0,.77.2l.87.2c.3.07.57.15.88.25a2.56,2.56,0,0,1,.77.4,1.7,1.7,0,0,1,.75,1.48,2.45,2.45,0,0,1-.3,1.26,2.64,2.64,0,0,1-.79.84,3.67,3.67,0,0,1-1.11.43,7.78,7.78,0,0,1-1.27.11,6.4,6.4,0,0,1-1.31-.13,3.59,3.59,0,0,1-1.12-.44,2.91,2.91,0,0,1-.82-.82,2.71,2.71,0,0,1-.33-1.27h2A1.23,1.23,0,0,0,225.46,64.94Z"></path><path class="cls-1" d="M232.1,61.54a2.44,2.44,0,0,1,.38-1.21,2.58,2.58,0,0,1,.82-.79,4.33,4.33,0,0,1,1.13-.42,6.54,6.54,0,0,1,1.25-.12,6.77,6.77,0,0,1,1.18.09,3.4,3.4,0,0,1,1.07.31,2.19,2.19,0,0,1,.79.65,1.87,1.87,0,0,1,.32,1.11v4a7.81,7.81,0,0,0,.05,1,1.56,1.56,0,0,0,.22.7h-2.14a2.58,2.58,0,0,1-.09-.35,2.65,2.65,0,0,1-.05-.38,2.8,2.8,0,0,1-1.18.72,5.08,5.08,0,0,1-1.39.2,3.75,3.75,0,0,1-1-.13,2.43,2.43,0,0,1-.82-.41,2.15,2.15,0,0,1-.55-.71,2.43,2.43,0,0,1-.2-1,2.23,2.23,0,0,1,.23-1.07,2,2,0,0,1,.59-.67,2.65,2.65,0,0,1,.83-.39q.45-.1.93-.18a7.9,7.9,0,0,1,.93-.12,6.07,6.07,0,0,0,.82-.14,1.29,1.29,0,0,0,.54-.25.58.58,0,0,0,.21-.49,1.11,1.11,0,0,0-.12-.54.77.77,0,0,0-.3-.32,1,1,0,0,0-.43-.14,2.8,2.8,0,0,0-.52,0,1.49,1.49,0,0,0-1,.26,1.16,1.16,0,0,0-.41.87ZM237,63.09a1.19,1.19,0,0,1-.33.19l-.43.11-.48.08a3.76,3.76,0,0,0-.5.07,3.57,3.57,0,0,0-.47.11,2.48,2.48,0,0,0-.4.2.83.83,0,0,0-.27.32,1,1,0,0,0-.11.49,1,1,0,0,0,.11.47.73.73,0,0,0,.28.3,1.47,1.47,0,0,0,.42.16,3.58,3.58,0,0,0,.48,0,1.91,1.91,0,0,0,.95-.21,1.4,1.4,0,0,0,.51-.48,1.46,1.46,0,0,0,.19-.59c0-.2,0-.35,0-.47Z"></path><path class="cls-1" d="M243.22,59.21v1.41h0a2.38,2.38,0,0,1,.4-.66,2.8,2.8,0,0,1,.58-.51,2.2,2.2,0,0,1,.69-.33,2.37,2.37,0,0,1,.76-.12,1.51,1.51,0,0,1,.46.07v2a3,3,0,0,0-.37-.05,2.42,2.42,0,0,0-.38,0,2.16,2.16,0,0,0-1,.18,1.65,1.65,0,0,0-.64.52,1.9,1.9,0,0,0-.35.79,3.59,3.59,0,0,0-.11,1v3.43h-2.09V59.21Z"></path><path class="cls-1" d="M249.56,59.21v1.41h0A2.94,2.94,0,0,1,250,60a2.56,2.56,0,0,1,.58-.51,2.25,2.25,0,0,1,.7-.33A2.31,2.31,0,0,1,252,59a1.61,1.61,0,0,1,.46.07v2l-.35-.05a2.75,2.75,0,0,0-.4,0,2.18,2.18,0,0,0-1,.18,1.65,1.65,0,0,0-.64.52,2,2,0,0,0-.35.79,4.07,4.07,0,0,0-.1,1v3.43h-2.09V59.21Z"></path><path class="cls-1" d="M253.66,61.37a3.41,3.41,0,0,1,.8-1.27,3.78,3.78,0,0,1,1.24-.82,4.58,4.58,0,0,1,1.62-.28,4.77,4.77,0,0,1,1.63.28,3.68,3.68,0,0,1,1.24.82,3.17,3.17,0,0,1,.8,1.27,5,5,0,0,1,0,3.3,3.52,3.52,0,0,1-.8,1.26,3.65,3.65,0,0,1-1.24.81,4.76,4.76,0,0,1-1.63.27,4.59,4.59,0,0,1-1.62-.27,3.75,3.75,0,0,1-1.24-.81,3.82,3.82,0,0,1-.8-1.26,4.84,4.84,0,0,1,0-3.3Zm1.91,2.54a2.24,2.24,0,0,0,.29.79,2.13,2.13,0,0,0,.57.55,1.72,1.72,0,0,0,.89.2,1.81,1.81,0,0,0,.9-.2,1.73,1.73,0,0,0,.56-.55,2.46,2.46,0,0,0,.31-.79,4.33,4.33,0,0,0,.09-.89,4.43,4.43,0,0,0-.09-.9,2.54,2.54,0,0,0-.31-.77,1.58,1.58,0,0,0-.56-.56,1.81,1.81,0,0,0-.9-.21,1.72,1.72,0,0,0-.89.21,1.9,1.9,0,0,0-.57.56,2.28,2.28,0,0,0-.29.77,3.82,3.82,0,0,0-.09.9A3.74,3.74,0,0,0,255.57,63.91Z"></path><path class="cls-1" d="M265.36,56.3V66.82h-2.09V56.3Z"></path><path class="cls-1" d="M269.76,56.3V66.82h-2.1V56.3Z"></path><path class="cls-1" d="M272,61.37a3.17,3.17,0,0,1,.8-1.27,3.59,3.59,0,0,1,1.22-.82,4.77,4.77,0,0,1,1.63-.28,4.68,4.68,0,0,1,1.63.28,3.58,3.58,0,0,1,1.24.82,3.43,3.43,0,0,1,.81,1.27,5.18,5.18,0,0,1,0,3.3,3.84,3.84,0,0,1-.81,1.26,3.56,3.56,0,0,1-1.24.81,4.68,4.68,0,0,1-1.63.27,4.76,4.76,0,0,1-1.63-.27,3.57,3.57,0,0,1-1.22-.81,3.52,3.52,0,0,1-.8-1.26,5,5,0,0,1,0-3.3Zm1.89,2.54a2.08,2.08,0,0,0,.31.79,1.77,1.77,0,0,0,.57.55,1.69,1.69,0,0,0,.88.2,1.79,1.79,0,0,0,.9-.2,2,2,0,0,0,.57-.55,2.07,2.07,0,0,0,.3-.79,4.33,4.33,0,0,0,.09-.89,4.43,4.43,0,0,0-.09-.9,2.1,2.1,0,0,0-.3-.77,1.59,1.59,0,0,0-1.47-.77,1.69,1.69,0,0,0-.88.21,1.61,1.61,0,0,0-.57.56,2.11,2.11,0,0,0-.31.77,5.29,5.29,0,0,0-.08.9A5.17,5.17,0,0,0,273.93,63.91Z"></path><path class="cls-1" d="M182.57,42.8h-24.7a9,9,0,1,1,0-18.08h24.7a9,9,0,1,1,0,18.08Z"></path><path class="cls-1" d="M182.57,67.5a33.75,33.75,0,0,1,0-67.5,9,9,0,1,1,0,18.08,15.67,15.67,0,0,0,0,31.34,9,9,0,1,1,0,18.08Z"></path><path class="cls-1" d="M9,67.5A9,9,0,0,1,.46,55.63L16.79,6.2A9,9,0,0,1,34,11.88L17.62,61.3A9,9,0,0,1,9,67.5Z"></path><path class="cls-1" d="M44,67.5a9,9,0,0,1-8.45-5.85L16.91,12.23A9,9,0,0,1,33.83,5.86L52.44,55.27a9,9,0,0,1-5.28,11.65A8.9,8.9,0,0,1,44,67.5Z"></path><path class="cls-1" d="M115.09,67.5a9,9,0,1,1,0-18.08,15.67,15.67,0,1,0,0-31.33,9,9,0,1,1,0-18.08,33.75,33.75,0,0,1,0,67.49Z"></path><path class="cls-1" d="M62.06,67.5a9,9,0,0,1-9-9V9.05a9,9,0,0,1,18.08,0V58.46A9,9,0,0,1,62.06,67.5Z"></path><path class="cls-1" d="M97,67.5a9,9,0,0,1-9-9V9.05a9,9,0,0,1,18.08,0V58.46A9,9,0,0,1,97,67.5Z"></path><path class="cls-1" d="M97,67.5a9,9,0,0,1-7.38-3.81L54.68,14.27A9,9,0,1,1,69.44,3.84l34.94,49.41a9,9,0,0,1-2.16,12.59A8.91,8.91,0,0,1,97,67.5Z"></path></g></g></svg>