<svg id="Capa_1" data-name="Capa 1" xmlns="http://www.w3.org/2000/svg" viewBox="0 0 1784.76 568.08"><defs><style>.cls-1{fill:#fff;}.cls-2{fill:#c4e1f7;}</style></defs><path class="cls-1" d="M134.67,408.06l37.58,15.6C90.71,489.6,107,761.17,370.79,686l-19.85-36.88c-178,54.61-208.47-133.3-154.57-184.35,0,17.29,1.41,22,1.41,22h42.54l-.7-88.63L146,367.64Z" transform="translate(-35.64 -242.6)"/><path class="cls-1" d="M491.63,642.07l-37.57-15.6C535.6,560.53,519.28,289,255.51,364.11L275.36,401c178-54.61,208.47,133.29,154.58,184.35,0-17.29-1.41-22-1.41-22H386l.71,88.64,93.62,30.49Z" transform="translate(-35.64 -242.6)"/><path class="cls-1" d="M116.94,478c0,11.58-4.72,33.08-4.72,33.08L35.64,494.56V462.89s52.24-7.32,81.3,15.13" transform="translate(-35.64 -242.6)"/><path class="cls-1" d="M53.6,651l17,29.3s57.42-25.53,64.29-38.76c6.84-20.79-24.59-30.25-24.59-30.25Z" transform="translate(-35.64 -242.6)"/><path class="cls-1" d="M229.45,810.68l-25.52-24.44s18-65.25,38.75-75.64c7.16,18.66,15.14,41.6,15.14,41.6Z" transform="translate(-35.64 -242.6)"/><polygon class="cls-1" points="335.16 482.18 362.1 537.02 394.24 525.68 364.71 468.01 335.16 482.18"/><path class="cls-1" d="M510.72,614.6c-12.29-20.56,9.46-36.41,9.46-36.41s31.43-6.85,82.26,36.41c-4.72,12-12.53,14.89-18,30.24-11.58-11.09-36.39-21-73.75-30.24" transform="translate(-35.64 -242.6)"/><path class="cls-1" d="M499.85,414.2c4.74,15.83,8.27,22.93,9.45,28.37,25.78,3.06,75.65-23.65,75.65-23.65l-15.13-33.09s-69.87,20.29-70,28.37" transform="translate(-35.64 -242.6)"/><path class="cls-1" d="M362.76,315.4s27.65,9.7,36.88,15.13c3.54-10.12,25.53-72.8,25.53-72.8L394,242.6Z" transform="translate(-35.64 -242.6)"/><polygon class="cls-1" points="138.03 50.11 168.27 31.2 200.44 93.61 169.23 107.78 138.03 50.11"/><path class="cls-1" d="M807.17,606.17c-9.21,4.59-29.9,9.51-56.87,9.51-76.54,0-116-47.62-116-110.71,0-75.58,53.89-117.64,120.93-117.64,26,0,45.66,5.24,54.56,9.85L799.62,437a108.15,108.15,0,0,0-42.06-8.22c-39.77,0-70.65,24-70.65,73.27,0,44.34,26.26,72.29,71,72.29,15.12,0,31.9-3.29,41.75-7.23Z" transform="translate(-35.64 -242.6)"/><polygon class="cls-1" points="936.13 276.16 854.63 276.16 854.63 328.74 945.66 328.74 945.66 369.81 804.35 369.81 804.35 148.35 941.05 148.35 941.05 189.43 854.63 189.43 854.63 235.42 936.13 235.42 936.13 276.16"/><path class="cls-1" d="M1202.75,527.63c-1-26.61-2-58.81-2-91h-1c-6.89,28.26-16.1,59.79-24.65,85.74l-26.94,86.42h-39.1L1085.45,523c-7.23-26-14.78-57.51-20-86.42h-.67c-1.3,29.89-2.28,64.07-3.94,91.68l-3.94,84.11h-46.33L1024.65,391h66.68L1113,464.88c6.89,25.62,13.79,53.23,18.72,79.18h1c6.23-25.64,13.79-54.86,21-79.52L1177.44,391h65.39L1255,612.41h-49Z" transform="translate(-35.64 -242.6)"/><path class="cls-1" d="M1343,494.46c4.27,1,9.53,1.32,16.77,1.32,26.61,0,43-13.48,43-36.17,0-20.36-14.13-32.52-39.09-32.52-10.2,0-17.1,1-20.72,2Zm-49.61-100.55c15.43-2.65,37.13-4.62,67.67-4.62,30.92,0,52.93,5.91,67.71,17.76,14.13,11.18,23.65,29.56,23.65,51.26s-7.24,40.08-20.36,52.59c-17.08,16.07-42.4,23.31-72,23.31a122.53,122.53,0,0,1-17.08-1v79.19h-49.61Z" transform="translate(-35.64 -242.6)"/><path class="cls-1" d="M1533.87,489.19h19.74c25,0,39.75-12.49,39.75-31.87,0-20.37-13.8-30.56-36.8-30.9-12.15,0-19,1-22.69,1.66Zm-49.59-95.28c16.1-2.65,40.08-4.62,66.68-4.62,32.86,0,55.88,4.93,71.64,17.42,13.15,10.53,20.38,26,20.38,46.34,0,28.26-20.06,47.63-39.09,54.52v1c15.43,6.28,24,21,29.56,41.43,6.92,25,13.79,53.86,18.06,62.42h-51.26c-3.6-6.25-8.86-24.3-15.44-51.6-5.92-27.59-15.44-35.16-35.82-35.47h-15.12v87.07h-49.59Z" transform="translate(-35.64 -242.6)"/><polygon class="cls-1" points="1643.45 148.34 1643.45 369.82 1784.76 369.82 1784.76 328.75 1693.72 328.75 1693.72 276.14 1775.19 276.14 1775.19 235.44 1693.72 235.44 1693.72 189.41 1780.14 189.41 1780.14 148.34 1643.45 148.34"/><path class="cls-1" d="M674.12,673.49v42.26c0,12.63,4.77,19.06,13.28,19.06,8.71,0,13.5-6.1,13.5-19.06V673.49h16.55v41.17c0,22.64-11.43,33.42-30.6,33.42-18.51,0-29.4-10.24-29.4-33.65V673.49Z" transform="translate(-35.64 -242.6)"/><path class="cls-1" d="M862.16,708.87h6.53c8.28,0,13.2-4.15,13.2-10.59,0-6.74-4.59-10.11-12.21-10.21a40.34,40.34,0,0,0-7.52.54Zm-16.44-31.59a148.67,148.67,0,0,1,22.09-1.52c10.89,0,18.51,1.63,23.76,5.77,4.35,3.48,6.76,8.61,6.76,15.35,0,9.36-6.66,15.8-13,18.08v.33c5.1,2.05,7.93,7,9.77,13.72,2.31,8.27,4.59,17.87,6,20.69h-17c-1.17-2.07-2.93-8.06-5.11-17.11-1.94-9.13-5.11-11.64-11.88-11.75h-5V749.7H845.72Z" transform="translate(-35.64 -242.6)"/><path class="cls-1" d="M1040.22,676.3v42.26c0,12.63,4.77,19.06,13.28,19.06,8.73,0,13.51-6.09,13.51-19.06V676.3h16.54v41.17c0,22.64-11.42,33.42-30.6,33.42-18.52,0-29.41-10.24-29.41-33.65V676.3Z" transform="translate(-35.64 -242.6)"/><path class="cls-1" d="M1273.14,746.32a81.62,81.62,0,0,1-24.52,4.15c-13.38,0-23.08-3.37-29.82-9.91-6.74-6.32-10.48-15.89-10.37-26.7.13-24.4,17.89-38.32,42-38.32,9.47,0,16.75,1.84,20.36,3.6l-3.48,13.28c-4-1.74-9-3.14-17.09-3.14-13.84,0-24.29,7.83-24.29,23.72,0,15.15,9.47,24.07,23.08,24.07,3.81,0,6.87-.45,8.17-1.1V720.62h-11.31v-13h27.32Z" transform="translate(-35.64 -242.6)"/><path class="cls-1" d="M1416.56,676.3v42.26c0,12.63,4.78,19.06,13.28,19.06,8.71,0,13.51-6.09,13.51-19.06V676.3h16.54v41.17c0,22.64-11.42,33.42-30.59,33.42-18.52,0-29.42-10.24-29.42-33.65V676.3Z" transform="translate(-35.64 -242.6)"/><path class="cls-1" d="M1620.62,718.45l-4.57-15.59c-1.32-4.35-2.62-9.8-3.7-14.15h-.24c-1.08,4.35-2.18,9.9-3.37,14.15l-4.33,15.59ZM1602,730.87l-5.24,18.85h-17.19L1602,676.29h21.78l22.77,73.43h-17.87L1623,730.87Z" transform="translate(-35.64 -242.6)"/><path class="cls-1" d="M1776.88,749.7V719.65l-23.17-43.35h18.93l7.51,17.63c2.29,5.34,3.81,9.29,5.66,14.05h.23c1.64-4.56,3.37-8.81,5.55-14.05L1799,676.3h18.62l-24.16,42.81V749.7Z" transform="translate(-35.64 -242.6)"/><path class="cls-2" d="M204.65,444.91c3.21,0,3.22-5,0-5s-3.23,5,0,5Z" transform="translate(-35.64 -242.6)"/><path class="cls-2" d="M204.65,444.91c3.21,0,3.22-5,0-5s-3.23,5,0,5Z" transform="translate(-35.64 -242.6)"/></svg>