<svg width="60" height="60" viewBox="0 0 60 60" fill="none" xmlns="http://www.w3.org/2000/svg">
<path fill-rule="evenodd" clip-rule="evenodd" d="M10.1806 17.7214L14.1667 19.3571C5.51863 26.2784 7.24777 54.7811 35.2174 46.893L33.1156 43.0235C14.2408 48.7534 11.0094 29.0321 16.7222 23.6758C16.7222 25.4888 16.8727 25.9805 16.8727 25.9805H21.3818L21.3102 16.6813L11.3843 13.4784L10.1806 17.7214Z" fill="white"/>
<path fill-rule="evenodd" clip-rule="evenodd" d="M48.0779 41.8439L44.0946 40.2081C52.7417 33.287 51.0129 4.78407 23.0433 12.6721L25.1472 16.5441C44.0205 10.8118 47.2516 30.5331 41.5392 35.8894C41.5392 34.0764 41.3863 33.5847 41.3863 33.5847H36.8752L36.9516 42.8864L46.8767 46.087L48.0779 41.8439Z" fill="white"/>
<path fill-rule="evenodd" clip-rule="evenodd" d="M8.69565 24.7638C8.69565 25.9875 8.19207 28.2609 8.19207 28.2609L0 26.5111V23.1641C0 23.1641 5.58748 22.3903 8.69565 24.7638Z" fill="white"/>
<path fill-rule="evenodd" clip-rule="evenodd" d="M1.73914 42.9485L3.54083 46.087C3.54083 46.087 9.60754 43.3537 10.3311 41.9354C11.057 39.7089 7.73446 38.6957 7.73446 38.6957L1.73914 42.9485Z" fill="white"/>
<path fill-rule="evenodd" clip-rule="evenodd" d="M20.502 60L17.826 57.4518C17.826 57.4518 19.7109 50.6503 21.891 49.5652C22.6397 51.5122 23.4782 53.9007 23.4782 53.9007L20.502 60Z" fill="white"/>
<path fill-rule="evenodd" clip-rule="evenodd" d="M35.2174 50.6495L37.9904 56.5216L41.3043 55.3064L38.262 49.1303L35.2174 50.6495Z" fill="white"/>
<path fill-rule="evenodd" clip-rule="evenodd" d="M49.9588 39.0353C48.6731 36.9014 50.9497 35.2585 50.9497 35.2585C50.9497 35.2585 54.2407 34.548 59.5653 39.0353C59.0722 40.2785 58.2536 40.58 57.6828 42.1739C56.4724 41.0241 53.8726 39.991 49.9588 39.0353Z" fill="white"/>
<path fill-rule="evenodd" clip-rule="evenodd" d="M48.6956 18.2467C49.203 19.938 49.5825 20.6983 49.7107 21.2781C52.4754 21.6054 57.826 18.7519 57.826 18.7519L56.2019 15.2173C56.2019 15.2173 48.7052 17.3853 48.6956 18.2467Z" fill="white"/>
<path fill-rule="evenodd" clip-rule="evenodd" d="M34.348 7.55885C34.348 7.55885 37.2404 8.56677 38.2032 9.13044C38.5727 8.08032 40.8697 1.56931 40.8697 1.56931L37.6101 0L34.348 7.55885Z" fill="white"/>
<path fill-rule="evenodd" clip-rule="evenodd" d="M14.7826 5.08386L17.9434 3.04351L21.3043 9.77411L18.0446 11.3044L14.7826 5.08386Z" fill="white"/>
</svg>
