<svg width="423" height="60" viewBox="0 0 423 60" fill="none" xmlns="http://www.w3.org/2000/svg">
<path fill-rule="evenodd" clip-rule="evenodd" d="M10.1807 17.7214L14.1668 19.3571C5.51868 26.2784 7.24781 54.7811 35.2174 46.893L33.1156 43.0235C14.2408 48.7534 11.0094 29.0321 16.7223 23.6758C16.7223 25.4888 16.8727 25.9805 16.8727 25.9805H21.3818L21.3102 16.6813L11.3844 13.4784L10.1807 17.7214Z" fill="white"/>
<path fill-rule="evenodd" clip-rule="evenodd" d="M48.0779 41.8439L44.0946 40.2081C52.7417 33.287 51.0129 4.78407 23.0434 12.6721L25.1473 16.5441C44.0205 10.8118 47.2516 30.5331 41.5392 35.8894C41.5392 34.0764 41.3864 33.5847 41.3864 33.5847H36.8753L36.9516 42.8864L46.8767 46.087L48.0779 41.8439Z" fill="white"/>
<path fill-rule="evenodd" clip-rule="evenodd" d="M8.69565 24.7638C8.69565 25.9875 8.19207 28.2609 8.19207 28.2609L0 26.5111V23.1641C0 23.1641 5.58748 22.3903 8.69565 24.7638Z" fill="white"/>
<path fill-rule="evenodd" clip-rule="evenodd" d="M1.7391 42.9485L3.5408 46.087C3.5408 46.087 9.60751 43.3537 10.331 41.9354C11.0569 39.7089 7.73442 38.6957 7.73442 38.6957L1.7391 42.9485Z" fill="white"/>
<path fill-rule="evenodd" clip-rule="evenodd" d="M20.502 60L17.826 57.4518C17.826 57.4518 19.7109 50.6503 21.891 49.5652C22.6397 51.5122 23.4782 53.9007 23.4782 53.9007L20.502 60Z" fill="white"/>
<path fill-rule="evenodd" clip-rule="evenodd" d="M35.2174 50.6495L37.9904 56.5216L41.3043 55.3064L38.262 49.1303L35.2174 50.6495Z" fill="white"/>
<path fill-rule="evenodd" clip-rule="evenodd" d="M49.9587 39.0353C48.6731 36.9014 50.9497 35.2585 50.9497 35.2585C50.9497 35.2585 54.2406 34.548 59.5653 39.0353C59.0722 40.2785 58.2536 40.58 57.6827 42.1739C56.4724 41.0241 53.8726 39.991 49.9587 39.0353Z" fill="white"/>
<path fill-rule="evenodd" clip-rule="evenodd" d="M48.6955 18.2467C49.203 19.938 49.5825 20.6983 49.7106 21.2781C52.4754 21.6054 57.826 18.7519 57.826 18.7519L56.2019 15.2173C56.2019 15.2173 48.7052 17.3853 48.6955 18.2467Z" fill="white"/>
<path fill-rule="evenodd" clip-rule="evenodd" d="M34.348 7.55885C34.348 7.55885 37.2405 8.56677 38.2032 9.13044C38.5727 8.08032 40.8697 1.56931 40.8697 1.56931L37.6101 0L34.348 7.55885Z" fill="white"/>
<path fill-rule="evenodd" clip-rule="evenodd" d="M14.7825 5.08386L17.9434 3.04351L21.3042 9.77411L18.0446 11.3044L14.7825 5.08386Z" fill="white"/>
<path d="M84.3026 19.707C86.4999 19.707 88.3773 20.1443 89.9346 21.019C91.5133 21.8723 92.7186 23.1096 93.5506 24.731C94.4039 26.3523 94.8306 28.3043 94.8306 30.587C94.8306 32.8696 94.4039 34.8216 93.5506 36.443C92.7186 38.0643 91.5133 39.3123 89.9346 40.187C88.3773 41.0403 86.4999 41.467 84.3026 41.467C82.1266 41.467 80.2386 41.0403 78.6386 40.187C77.0599 39.3123 75.8439 38.0643 74.9906 36.443C74.1373 34.8216 73.7106 32.8696 73.7106 30.587C73.7106 28.3043 74.1373 26.3523 74.9906 24.731C75.8439 23.1096 77.0599 21.8723 78.6386 21.019C80.2386 20.1443 82.1266 19.707 84.3026 19.707ZM84.3026 24.699C83.4279 24.699 82.7026 24.923 82.1266 25.371C81.5719 25.7976 81.1453 26.4376 80.8466 27.291C80.5693 28.1443 80.4306 29.243 80.4306 30.587C80.4306 31.9096 80.5693 33.0083 80.8466 33.883C81.1453 34.7363 81.5719 35.387 82.1266 35.835C82.7026 36.2616 83.4279 36.475 84.3026 36.475C85.1559 36.475 85.8706 36.2616 86.4466 35.835C87.0226 35.387 87.4493 34.7363 87.7266 33.883C88.0039 33.0083 88.1426 31.9096 88.1426 30.587C88.1426 29.243 88.0039 28.1443 87.7266 27.291C87.4493 26.4376 87.0226 25.7976 86.4466 25.371C85.8706 24.923 85.1559 24.699 84.3026 24.699ZM108.7 41.467C107.612 41.467 106.663 41.211 105.852 40.699C105.041 40.1656 104.391 39.451 103.9 38.555C103.409 37.6376 103.111 36.603 103.004 35.451L103.58 34.683L103.228 41.147H97.5641V18.555H104.028V30.683L103.452 29.819C103.708 28.3896 104.273 27.2056 105.148 26.267C106.044 25.307 107.313 24.827 108.956 24.827C110.172 24.827 111.239 25.1576 112.156 25.819C113.073 26.4803 113.777 27.4403 114.268 28.699C114.78 29.9363 115.036 31.4403 115.036 33.211C115.036 34.939 114.78 36.4216 114.268 37.659C113.777 38.8963 113.052 39.8456 112.092 40.507C111.153 41.147 110.023 41.467 108.7 41.467ZM106.236 36.859C106.961 36.859 107.527 36.5816 107.932 36.027C108.337 35.4723 108.54 34.5123 108.54 33.147C108.54 31.7816 108.337 30.8323 107.932 30.299C107.527 29.7443 106.961 29.467 106.236 29.467C105.767 29.467 105.361 29.6163 105.02 29.915C104.7 30.1923 104.455 30.6083 104.284 31.163C104.113 31.7176 104.028 32.379 104.028 33.147C104.028 33.979 104.113 34.6723 104.284 35.227C104.476 35.7603 104.732 36.1656 105.052 36.443C105.393 36.7203 105.788 36.859 106.236 36.859ZM124.699 41.467C123.12 41.467 121.627 41.2323 120.219 40.763C118.811 40.2936 117.605 39.6003 116.603 38.683L119.195 35.259C119.771 35.835 120.507 36.3363 121.403 36.763C122.32 37.1896 123.28 37.403 124.283 37.403C124.795 37.403 125.221 37.339 125.563 37.211C125.925 37.083 126.107 36.859 126.107 36.539C126.107 36.3256 126.011 36.155 125.819 36.027C125.648 35.8776 125.275 35.7496 124.699 35.643L123.035 35.323C120.859 34.8963 119.312 34.2776 118.395 33.467C117.499 32.635 117.051 31.547 117.051 30.203C117.051 29.3283 117.317 28.4856 117.851 27.675C118.405 26.843 119.269 26.1603 120.443 25.627C121.637 25.0936 123.173 24.827 125.051 24.827C126.693 24.827 128.155 25.051 129.435 25.499C130.736 25.9256 131.771 26.5443 132.539 27.355L130.011 30.683C129.435 30.1283 128.709 29.691 127.835 29.371C126.96 29.051 126.128 28.891 125.339 28.891C124.933 28.891 124.592 28.923 124.315 28.987C124.037 29.051 123.824 29.147 123.675 29.275C123.547 29.3816 123.483 29.531 123.483 29.723C123.483 29.9363 123.6 30.1283 123.835 30.299C124.091 30.4483 124.549 30.587 125.211 30.715L127.771 31.163C129.456 31.4616 130.683 32.0163 131.451 32.827C132.219 33.6376 132.603 34.6296 132.603 35.803C132.603 36.8483 132.325 37.7976 131.771 38.651C131.216 39.5043 130.352 40.187 129.179 40.699C128.027 41.211 126.533 41.467 124.699 41.467ZM142.85 41.467C141.015 41.467 139.426 41.147 138.082 40.507C136.759 39.8456 135.735 38.8963 135.01 37.659C134.306 36.4216 133.954 34.9176 133.954 33.147C133.954 31.3763 134.317 29.8723 135.042 28.635C135.767 27.3976 136.781 26.459 138.082 25.819C139.383 25.1576 140.887 24.827 142.594 24.827C144.343 24.827 145.826 25.1576 147.042 25.819C148.279 26.459 149.218 27.355 149.858 28.507C150.519 29.659 150.85 31.003 150.85 32.539C150.85 32.9016 150.829 33.2643 150.786 33.627C150.765 33.9896 150.733 34.299 150.69 34.555H138.114V31.739H147.874L144.802 32.923C144.802 31.707 144.631 30.7896 144.29 30.171C143.97 29.531 143.405 29.211 142.594 29.211C142.039 29.211 141.57 29.339 141.186 29.595C140.823 29.851 140.546 30.2776 140.354 30.875C140.183 31.4723 140.098 32.2616 140.098 33.243C140.098 34.2243 140.205 35.003 140.418 35.579C140.653 36.1336 140.973 36.5176 141.378 36.731C141.783 36.9443 142.295 37.051 142.914 37.051C143.597 37.051 144.13 36.9123 144.514 36.635C144.898 36.3576 145.175 35.9736 145.346 35.483L150.53 37.019C150.274 38.0003 149.751 38.8216 148.962 39.483C148.194 40.1443 147.277 40.6456 146.21 40.987C145.143 41.307 144.023 41.467 142.85 41.467ZM153.22 41.147V25.147H159.012L159.204 28.891C159.567 27.6323 160.132 26.6403 160.9 25.915C161.69 25.1896 162.714 24.827 163.972 24.827C164.42 24.827 164.783 24.8696 165.06 24.955C165.338 25.019 165.54 25.1043 165.668 25.211L165.092 30.459C164.879 30.3736 164.602 30.299 164.26 30.235C163.919 30.171 163.524 30.139 163.076 30.139C162.436 30.139 161.86 30.2563 161.348 30.491C160.836 30.7256 160.431 31.0776 160.132 31.547C159.834 31.995 159.684 32.571 159.684 33.275V41.147H153.22ZM177.525 25.147H184.213L178.773 41.147H170.869L165.429 25.147H172.181L174.837 36.891L177.525 25.147ZM194.083 31.067C194.083 30.4696 193.923 30.0003 193.603 29.659C193.304 29.2963 192.856 29.115 192.259 29.115C191.704 29.115 191.224 29.2643 190.819 29.563C190.435 29.8616 190.19 30.427 190.083 31.259L184.611 30.267C184.824 28.603 185.603 27.2803 186.947 26.299C188.291 25.3176 190.211 24.827 192.707 24.827C194.414 24.827 195.843 25.0723 196.995 25.563C198.168 26.0323 199.043 26.7256 199.619 27.643C200.216 28.5603 200.515 29.659 200.515 30.939V36.315C200.515 37.1683 200.899 37.595 201.667 37.595C201.987 37.595 202.232 37.5523 202.403 37.467L202.083 40.955C201.379 41.2963 200.504 41.467 199.459 41.467C198.542 41.467 197.731 41.3283 197.027 41.051C196.323 40.7523 195.768 40.3256 195.363 39.771C194.958 39.2163 194.755 38.491 194.755 37.595V37.339L195.395 37.243C195.395 38.0963 195.128 38.843 194.595 39.483C194.083 40.123 193.4 40.6136 192.547 40.955C191.715 41.2963 190.787 41.467 189.763 41.467C188.654 41.467 187.704 41.2963 186.915 40.955C186.126 40.6136 185.518 40.123 185.091 39.483C184.686 38.843 184.483 38.0643 184.483 37.147C184.483 35.9736 184.835 35.0136 185.539 34.267C186.264 33.5203 187.352 33.0083 188.803 32.731L194.595 31.515L194.563 34.235L192.195 34.779C191.662 34.8856 191.267 35.067 191.011 35.323C190.776 35.5576 190.659 35.8883 190.659 36.315C190.659 36.7203 190.798 37.0403 191.075 37.275C191.352 37.4883 191.694 37.595 192.099 37.595C192.376 37.595 192.632 37.5523 192.867 37.467C193.102 37.3816 193.304 37.2536 193.475 37.083C193.667 36.9123 193.816 36.699 193.923 36.443C194.03 36.187 194.083 35.8776 194.083 35.515V31.067ZM211.121 19.867V35.003C211.121 35.7496 211.281 36.283 211.601 36.603C211.943 36.923 212.444 37.083 213.105 37.083C213.575 37.083 213.98 37.0403 214.321 36.955C214.663 36.8696 214.983 36.731 215.281 36.539L215.697 40.315C215.185 40.6776 214.492 40.955 213.617 41.147C212.743 41.3603 211.889 41.467 211.057 41.467C209.692 41.467 208.529 41.2856 207.569 40.923C206.631 40.5603 205.905 39.9843 205.393 39.195C204.903 38.4056 204.657 37.3496 204.657 36.027V21.659L211.121 19.867ZM215.473 25.147V29.595H202.033V25.147H215.473ZM225.533 24.827C227.282 24.827 228.808 25.1576 230.109 25.819C231.41 26.459 232.424 27.3976 233.149 28.635C233.874 29.8723 234.237 31.3763 234.237 33.147C234.237 34.8963 233.874 36.4003 233.149 37.659C232.424 38.8963 231.41 39.8456 230.109 40.507C228.808 41.147 227.282 41.467 225.533 41.467C223.826 41.467 222.312 41.147 220.989 40.507C219.688 39.8456 218.664 38.8963 217.917 37.659C217.192 36.4003 216.829 34.8963 216.829 33.147C216.829 31.3763 217.192 29.8723 217.917 28.635C218.664 27.3976 219.688 26.459 220.989 25.819C222.312 25.1576 223.826 24.827 225.533 24.827ZM225.533 29.275C225.064 29.275 224.658 29.3923 224.317 29.627C223.997 29.8616 223.752 30.267 223.581 30.843C223.41 31.419 223.325 32.187 223.325 33.147C223.325 34.107 223.41 34.875 223.581 35.451C223.752 36.0056 223.997 36.411 224.317 36.667C224.658 36.9016 225.064 37.019 225.533 37.019C226.024 37.019 226.429 36.9016 226.749 36.667C227.069 36.411 227.314 36.0056 227.485 35.451C227.656 34.875 227.741 34.107 227.741 33.147C227.741 32.187 227.656 31.419 227.485 30.843C227.314 30.267 227.069 29.8616 226.749 29.627C226.429 29.3923 226.024 29.275 225.533 29.275ZM236.658 41.147V25.147H242.45L242.642 28.891C243.005 27.6323 243.57 26.6403 244.338 25.915C245.127 25.1896 246.151 24.827 247.41 24.827C247.858 24.827 248.221 24.8696 248.498 24.955C248.775 25.019 248.978 25.1043 249.106 25.211L248.53 30.459C248.317 30.3736 248.039 30.299 247.698 30.235C247.357 30.171 246.962 30.139 246.514 30.139C245.874 30.139 245.298 30.2563 244.786 30.491C244.274 30.7256 243.869 31.0776 243.57 31.547C243.271 31.995 243.122 32.571 243.122 33.275V41.147H236.658ZM253.859 23.739C252.579 23.739 251.651 23.515 251.075 23.067C250.52 22.619 250.243 21.8936 250.243 20.891C250.243 19.867 250.52 19.131 251.075 18.683C251.651 18.235 252.579 18.011 253.859 18.011C255.139 18.011 256.056 18.235 256.611 18.683C257.187 19.131 257.475 19.867 257.475 20.891C257.475 21.8936 257.187 22.619 256.611 23.067C256.056 23.515 255.139 23.739 253.859 23.739ZM257.091 25.147V41.147H250.627V25.147H257.091ZM268.22 24.827C269.97 24.827 271.495 25.1576 272.796 25.819C274.098 26.459 275.111 27.3976 275.836 28.635C276.562 29.8723 276.924 31.3763 276.924 33.147C276.924 34.8963 276.562 36.4003 275.836 37.659C275.111 38.8963 274.098 39.8456 272.796 40.507C271.495 41.147 269.97 41.467 268.22 41.467C266.514 41.467 264.999 41.147 263.676 40.507C262.375 39.8456 261.351 38.8963 260.604 37.659C259.879 36.4003 259.516 34.8963 259.516 33.147C259.516 31.3763 259.879 29.8723 260.604 28.635C261.351 27.3976 262.375 26.459 263.676 25.819C264.999 25.1576 266.514 24.827 268.22 24.827ZM268.22 29.275C267.751 29.275 267.346 29.3923 267.004 29.627C266.684 29.8616 266.439 30.267 266.268 30.843C266.098 31.419 266.012 32.187 266.012 33.147C266.012 34.107 266.098 34.875 266.268 35.451C266.439 36.0056 266.684 36.411 267.004 36.667C267.346 36.9016 267.751 37.019 268.22 37.019C268.711 37.019 269.116 36.9016 269.436 36.667C269.756 36.411 270.002 36.0056 270.172 35.451C270.343 34.875 270.428 34.107 270.428 33.147C270.428 32.187 270.343 31.419 270.172 30.843C270.002 30.267 269.756 29.8616 269.436 29.627C269.116 29.3923 268.711 29.275 268.22 29.275ZM307.557 34.875C307.173 36.4323 306.522 37.7016 305.605 38.683C304.709 39.6643 303.61 40.379 302.309 40.827C301.029 41.2536 299.61 41.467 298.053 41.467C295.877 41.467 293.989 41.0403 292.389 40.187C290.81 39.3123 289.594 38.0643 288.741 36.443C287.887 34.8216 287.461 32.8696 287.461 30.587C287.461 28.3043 287.887 26.3523 288.741 24.731C289.594 23.1096 290.81 21.8723 292.389 21.019C293.989 20.1443 295.866 19.707 298.021 19.707C299.557 19.707 300.965 19.9203 302.245 20.347C303.546 20.7736 304.645 21.435 305.541 22.331C306.437 23.227 307.045 24.3896 307.365 25.819L301.701 28.091C301.466 26.7256 301.05 25.819 300.453 25.371C299.877 24.923 299.13 24.699 298.213 24.699C297.359 24.699 296.623 24.923 296.005 25.371C295.407 25.7976 294.949 26.4483 294.629 27.323C294.33 28.1763 294.181 29.2643 294.181 30.587C294.181 31.8883 294.319 32.9763 294.597 33.851C294.895 34.7256 295.343 35.387 295.941 35.835C296.559 36.2616 297.359 36.475 298.341 36.475C299.215 36.475 299.951 36.219 300.549 35.707C301.146 35.195 301.541 34.395 301.733 33.307L307.557 34.875ZM309.979 41.147V20.027H327.003V24.923H316.507V28.347H324.891V32.891H316.507V36.251H327.419V41.147H309.979ZM355.961 20.027V41.147H350.201V32.699L350.329 25.883H350.265L345.625 41.147H340.377L335.801 25.883H335.705L335.833 32.699V41.147H330.073V20.027H339.289L342.137 30.043L343.193 34.235H343.257L344.313 30.043L347.161 20.027H355.961ZM370.319 20.027C372.132 20.027 373.668 20.315 374.927 20.891C376.207 21.4456 377.178 22.267 377.839 23.355C378.522 24.4216 378.863 25.7336 378.863 27.291C378.863 28.8483 378.522 30.171 377.839 31.259C377.178 32.3256 376.207 33.147 374.927 33.723C373.668 34.2776 372.132 34.555 370.319 34.555H366.351V41.147H359.823V20.027H370.319ZM369.263 29.819C370.223 29.819 370.97 29.6163 371.503 29.211C372.036 28.7843 372.303 28.1443 372.303 27.291C372.303 26.4376 372.036 25.8083 371.503 25.403C370.97 24.9763 370.223 24.763 369.263 24.763H366.351V29.819H369.263ZM392.67 20.027C395.294 20.027 397.321 20.635 398.75 21.851C400.201 23.0456 400.926 24.6456 400.926 26.651C400.926 28.891 400.222 30.587 398.814 31.739C397.406 32.891 395.38 33.467 392.734 33.467L392.094 33.819H388.254V41.147H381.854V20.027H392.67ZM391.614 29.371C392.532 29.371 393.214 29.2003 393.662 28.859C394.132 28.4963 394.366 27.9096 394.366 27.099C394.366 26.2883 394.132 25.7016 393.662 25.339C393.214 24.9763 392.532 24.795 391.614 24.795H388.254V29.371H391.614ZM395.486 30.747L402.142 41.147H395.006L389.854 31.899L395.486 30.747ZM404.198 41.147V20.027H421.222V24.923H410.726V28.347H419.11V32.891H410.726V36.251H421.638V41.147H404.198Z" fill="white"/>
</svg>
